HIERARCHY
ROOT Hips
{
	OFFSET 0.000000 0.000000 0.000000
	CHANNELS 6 Xposition Yposition Zposition Xrotation Yrotation Zrotation
	JOINT LeftUpLeg_virtual
	{
		OFFSET 0.000000 0.000000 0.000000
		CHANNELS 3 Xrotation Yrotation Zrotation
		JOINT LeftUpLeg
		{
			OFFSET 10.205400 -3.823500 0.155100
			CHANNELS 3 Xrotation Yrotation Zrotation
			JOINT LeftLeg
			{
				OFFSET 0.708757 -12.982077 0.567790
				CHANNELS 3 Xrotation Yrotation Zrotation
				JOINT LeftFoot
				{
					OFFSET -0.708756 -10.717838 -2.184338
					CHANNELS 3 Xrotation Yrotation Zrotation
					JOINT LeftToeBase
					{
						OFFSET 0.108149 -7.191104 7.560241
						CHANNELS 3 Xrotation Yrotation Zrotation
						JOINT LeftToe_End
						{
							OFFSET 0.070230 0.081724 4.490308
							CHANNELS 3 Xrotation Yrotation Zrotation
							End Site
							{
								OFFSET 0 0 0
							}
						}
					}
				}
			}
		}
	}
	JOINT RightUpLeg_virtual
	{
		OFFSET 0.000000 0.000000 0.000000
		CHANNELS 3 Xrotation Yrotation Zrotation
		JOINT RightUpLeg
		{
			OFFSET -10.205400 -3.823500 0.005500
			CHANNELS 3 Xrotation Yrotation Zrotation
			JOINT RightLeg
			{
				OFFSET -0.708756 -12.982134 0.610632
				CHANNELS 3 Xrotation Yrotation Zrotation
				JOINT RightFoot
				{
					OFFSET 0.708754 -10.717769 -1.945823
					CHANNELS 3 Xrotation Yrotation Zrotation
					JOINT RightToeBase
					{
						OFFSET -0.108140 -7.191069 7.372968
						CHANNELS 3 Xrotation Yrotation Zrotation
						JOINT RightToe_End
						{
							OFFSET -0.070227 0.081735 4.479403
							CHANNELS 3 Xrotation Yrotation Zrotation
							End Site
							{
								OFFSET 0 0 0
							}
						}
					}
				}
			}
		}
	}
	JOINT Spine_virtual
	{
		OFFSET 0.000000 0.000000 0.000000
		CHANNELS 3 Xrotation Yrotation Zrotation
		JOINT Spine
		{
			OFFSET 0.000000 6.876099 0.125700
			CHANNELS 3 Xrotation Yrotation Zrotation
			JOINT Spine1
			{
				OFFSET 0.000000 5.730043 0.104720
				CHANNELS 3 Xrotation Yrotation Zrotation
				JOINT Spine1_split
				{
					OFFSET 0.000000 5.730043 0.104720
					CHANNELS 3 Xrotation Yrotation Zrotation
					JOINT Spine2
					{
						OFFSET 0.000000 5.730043 0.104720
						CHANNELS 3 Xrotation Yrotation Zrotation
						JOINT Neck_virtual
						{
							OFFSET 0.000000 0.000000 0.000000
							CHANNELS 3 Xrotation Yrotation Zrotation
							JOINT Neck
							{
								OFFSET 0.000000 10.314075 0.188496
								CHANNELS 3 Xrotation Yrotation Zrotation
								JOINT Head
								{
									OFFSET 0.000000 7.643700 -2.377400
									CHANNELS 3 Xrotation Yrotation Zrotation
									JOINT HeadTop_End
									{
										OFFSET 0.000000 43.788605 -13.619600
										CHANNELS 3 Xrotation Yrotation Zrotation
										End Site
										{
											OFFSET 0 0 0
										}
									}
								}
							}
						}
						JOINT LeftShoulder_virtual
						{
							OFFSET 0.000000 0.000000 0.000000
							CHANNELS 3 Xrotation Yrotation Zrotation
							JOINT LeftShoulder
							{
								OFFSET 2.196100 4.412489 0.087492
								CHANNELS 3 Xrotation Yrotation Zrotation
								JOINT LeftShoulder_split
								{
									OFFSET 2.196100 4.412489 0.087492
									CHANNELS 3 Xrotation Yrotation Zrotation
									JOINT LeftArm
									{
										OFFSET 8.771219 -2.981674 -0.026999
										CHANNELS 3 Xrotation Yrotation Zrotation
										JOINT LeftForeArm
										{
											OFFSET 8.512804 0.000000 -0.000000
											CHANNELS 3 Xrotation Yrotation Zrotation
											JOINT LeftHand
											{
												OFFSET 18.484802 0.000000 -0.000000
												CHANNELS 3 Xrotation Yrotation Zrotation
												End Site
												{
													OFFSET 0 0 0
												}
											}
										}
									}
								}
							}
						}
						JOINT RightShoulder_virtual
						{
							OFFSET 0.000000 0.000000 0.000000
							CHANNELS 3 Xrotation Yrotation Zrotation
							JOINT RightShoulder
							{
								OFFSET -2.196100 4.412496 0.070690
								CHANNELS 3 Xrotation Yrotation Zrotation
								JOINT RightShoulder_split
								{
									OFFSET -2.196100 4.412496 0.070690
									CHANNELS 3 Xrotation Yrotation Zrotation
									JOINT RightArm
									{
										OFFSET -8.771282 -2.981682 -0.094208
										CHANNELS 3 Xrotation Yrotation Zrotation
										JOINT RightForeArm
										{
											OFFSET -8.494598 0.000000 0.000000
											CHANNELS 3 Xrotation Yrotation Zrotation
											JOINT RightHand
											{
												OFFSET -18.483803 0.000000 0.000001
												CHANNELS 3 Xrotation Yrotation Zrotation
												End Site
												{
													OFFSET 0 0 0
												}
											}
										}
									}
								}
							}
						}
					}
				}
			}
		}
	}
}
MOTION
Frames: 8
Frame Time: 0.03333333
0.295121 27.238926 -0.539403 0.000000 0.000000 0.000000 4.128503 -49.867628 7.476126 -36.911893 10.714707 24.049825 61.594236 -14.827429 1.818461 -25.785028 -3.630526 -18.495532 -2.529165 -2.607601 1.211199 0.000000 0.000000 0.000000 3.766157 -47.573777 7.752043 -23.865550 -16.371569 -35.730444 57.742986 18.105296 -8.268184 -37.918710 -31.219849 33.523258 4.109116 8.548701 -19.412154 0.000000 0.000000 0.000000 2.348148 -44.023001 6.368663 8.816922 10.934424 -3.227512 -0.910084 1.571459 -0.677654 0.068003 0.372272 0.123225 0.000000 0.000000 0.000000 4.166479 3.018176 -0.005161 -4.686181 12.562078 1.591886 -17.978699 19.573053 -10.491571 0.000000 0.000000 0.000000 2.044102 2.135710 -1.239777 4.103714 7.575328 -3.377749 -1.616383 -7.323204 1.535737 -9.866872 6.416892 -45.889288 170.867455 -48.955610 169.829416 0.000000 0.000000 0.000000 4.559974 2.359739 -0.335134 -4.074313 3.539132 -21.640973 -3.182769 5.145465 5.395875 -46.893791 17.120388 64.335635 -141.667781 65.047505 135.962292 0.000000 0.000000 0.000000 
0.507105 27.191103 -0.633407 0.000000 0.000000 0.000000 4.962788 -54.396603 8.004282 -32.342182 10.213669 23.968170 62.332983 -13.898010 1.691832 -29.690928 0.736949 -19.674401 -2.335112 -2.515503 0.881605 0.000000 0.000000 0.000000 4.678490 -52.165884 8.505303 -28.345968 -11.488943 -35.906653 58.739456 19.474182 -8.743668 -34.939348 -27.624147 34.708928 4.287768 8.179607 -19.810330 0.000000 0.000000 0.000000 4.118878 -48.317284 6.902303 9.170620 9.531368 -2.230703 -1.007908 1.042302 -0.212420 0.089227 0.396512 0.195480 0.000000 0.000000 0.000000 4.614659 2.582120 0.320762 -5.782131 13.114632 2.163039 -18.668142 27.281270 -11.463789 0.000000 0.000000 0.000000 2.213787 1.673412 -0.513205 3.780646 7.436439 -0.569889 1.231387 -6.663972 1.159087 -13.042374 12.782506 -42.634399 166.414595 -50.986601 165.975878 0.000000 0.000000 0.000000 4.570547 1.869624 -0.257296 -4.280185 3.748576 -19.841112 -2.129284 5.720021 5.149518 -47.696143 18.326832 70.301088 -146.364902 63.697907 140.469821 0.000000 0.000000 0.000000 
0.666815 27.098499 -0.820642 0.000000 0.000000 0.000000 5.454485 -57.998237 8.051381 -28.087582 9.168007 24.036172 63.402570 -12.675579 1.506590 -33.875853 4.733015 -19.633437 -1.986724 -2.273354 0.165793 0.000000 0.000000 0.000000 4.969309 -56.122152 8.551503 -32.352612 -7.643008 -35.787111 59.544913 20.954698 -8.829081 -32.062452 -24.115725 36.143175 4.280226 7.850659 -20.050341 0.000000 0.000000 0.000000 5.689754 -52.048227 6.885392 9.355273 7.801290 -1.244518 -0.907782 0.210518 0.269344 0.112190 0.293669 0.252572 0.000000 0.000000 0.000000 5.184821 1.834749 0.843411 -6.988237 14.051549 2.741441 -17.678654 34.945222 -13.637992 0.000000 0.000000 0.000000 2.819547 0.814209 0.286443 3.324640 5.956397 2.636337 3.182830 -3.814939 0.547311 -19.905564 15.137967 -37.261236 157.089433 -59.263837 157.209399 0.000000 0.000000 0.000000 4.768851 0.966100 -0.229233 -3.872397 5.121168 -18.114968 -1.188216 4.973150 4.164813 -48.291971 20.801073 75.676727 -149.726612 63.649372 143.851502 0.000000 0.000000 0.000000 
0.766111 26.998989 -1.008706 0.000000 0.000000 0.000000 5.126657 -59.919904 7.304196 -25.211287 7.529923 24.428472 64.787268 -11.726010 1.484113 -36.760266 7.446203 -19.458143 -2.530359 -1.968364 -0.590851 0.000000 0.000000 0.000000 4.324776 -58.435028 7.579670 -34.851344 -5.622654 -35.401704 59.928899 21.911520 -8.382961 -30.647855 -21.565812 36.425979 4.814196 7.467801 -19.926268 0.000000 0.000000 0.000000 6.329752 -54.434128 6.040930 9.316915 5.678043 -0.433894 -0.589779 -0.819438 0.608288 0.190167 0.037712 0.270645 0.000000 0.000000 0.000000 5.670190 0.823241 1.329628 -7.950035 15.264511 3.317669 -14.042937 41.741304 -17.383878 0.000000 0.000000 0.000000 4.004885 -0.351735 0.871958 3.020080 3.204855 5.601476 3.544776 0.280328 -0.319787 -28.558037 12.413014 -31.570316 126.847814 -71.393550 127.217710 0.000000 0.000000 0.000000 5.244453 -0.246144 -0.257350 -3.033861 7.018719 -16.652700 -1.098385 3.513565 2.597155 -47.662850 23.833974 79.592959 -153.512135 63.757057 147.944110 0.000000 0.000000 0.000000 
0.804155 26.897989 -1.151987 0.000000 0.000000 0.000000 3.875993 -59.457828 5.786512 -24.246509 5.531459 24.830311 66.258593 -11.341617 1.725365 -37.598245 8.451809 -19.598087 -3.817024 -1.641196 -1.281586 0.000000 0.000000 0.000000 2.986191 -58.584827 5.846388 -35.150896 -5.708474 -35.013162 59.820593 21.866162 -7.494147 -30.918467 -20.598551 35.118702 5.675635 7.120327 -19.319050 0.000000 0.000000 0.000000 5.938925 -55.098494 4.657502 9.066046 3.456678 0.036014 -0.130830 -1.809208 0.640338 0.227122 -0.224853 0.187943 0.000000 0.000000 0.000000 5.980244 -0.252518 1.531710 -8.574776 16.430271 3.958936 -7.902715 46.507468 -22.410660 0.000000 0.000000 0.000000 5.481816 -1.612367 1.114511 2.875332 -0.262655 7.825585 2.350844 4.178521 -1.146279 -35.706743 5.675470 -27.887541 61.894949 -70.088061 61.790467 0.000000 0.000000 0.000000 5.942085 -1.508937 -0.418584 -1.935188 9.080023 -15.532110 -1.965414 1.924447 1.136836 -45.242941 26.863860 80.854338 -157.804718 63.075035 152.949642 0.000000 0.000000 0.000000 
0.798952 26.828676 -1.245879 0.000000 0.000000 0.000000 2.519431 -56.827293 4.318941 -25.123246 3.672709 24.813162 67.259680 -11.279083 1.995969 -36.935194 7.792637 -19.478941 -4.700070 -1.331919 -1.907724 0.000000 0.000000 0.000000 1.663581 -56.449143 4.193514 -33.134139 -7.652862 -34.905033 59.286049 20.853087 -6.435987 -32.258345 -21.197053 32.988379 6.292673 6.956797 -18.358662 0.000000 0.000000 0.000000 4.691035 -53.715036 3.276822 8.670666 1.621194 0.082962 0.364226 -2.449813 0.320441 0.139621 -0.356646 0.056732 0.000000 0.000000 0.000000 6.044383 -1.088327 1.325608 -8.906486 17.150779 4.736911 -0.483824 48.268756 -27.518067 0.000000 0.000000 0.000000 6.838057 -2.617612 0.925943 2.680688 -3.585156 9.012911 0.500265 6.994924 -2.451950 -39.977599 -2.247630 -27.405880 37.697289 -58.219993 36.454857 0.000000 0.000000 0.000000 6.725595 -2.484142 -0.733674 -0.788436 11.222636 -14.897315 -3.386442 0.094633 0.824766 -41.113217 29.663153 78.859117 -161.773959 61.529383 157.990253 0.000000 0.000000 0.000000 
0.746097 26.804575 -1.265153 0.000000 0.000000 0.000000 1.550204 -52.672998 3.521583 -27.544290 2.202071 24.067710 67.509221 -11.350205 2.343979 -35.244404 5.804118 -18.995420 -4.281684 -1.059913 -2.458938 0.000000 0.000000 0.000000 1.027736 -52.352778 3.364604 -29.348906 -10.761889 -35.033714 58.339166 19.429462 -5.680454 -34.114237 -22.974835 31.557298 6.211485 7.073923 -17.401159 0.000000 0.000000 0.000000 2.990713 -50.450649 2.371561 8.260716 0.733668 -0.334743 0.863104 -2.528799 -0.233932 0.071483 -0.393998 -0.078006 0.000000 0.000000 0.000000 5.911730 -1.374007 0.712087 -9.309042 17.189549 5.648502 5.606474 46.816705 -30.588647 0.000000 0.000000 0.000000 7.813637 -3.007596 0.385322 2.108742 -6.031098 8.786475 -0.327737 8.317287 -3.638648 -40.694253 -8.724832 -29.789307 33.789974 -54.193579 31.086079 0.000000 0.000000 0.000000 7.402684 -2.844704 -1.128646 0.193000 13.073413 -14.862695 -5.113593 -1.188667 1.791626 -36.089412 32.010563 73.457687 -164.332425 60.125759 162.020092 0.000000 0.000000 0.000000 
0.685505 26.798721 -1.193792 0.000000 0.000000 0.000000 1.142545 -47.907681 3.533508 -30.983698 1.381615 22.459385 67.006526 -11.534654 2.701390 -32.877901 2.902644 -18.218782 -2.600910 -0.864982 -2.846238 0.000000 0.000000 0.000000 1.005558 -47.043406 3.326943 -24.750831 -14.350079 -35.458189 57.144037 18.185831 -5.460212 -36.149852 -25.522323 31.755721 5.340567 7.463939 -16.726879 0.000000 0.000000 0.000000 1.275060 -45.897280 2.165669 8.026248 1.220643 -1.061118 1.422488 -1.926472 -0.858728 0.065581 -0.398076 -0.080179 0.000000 0.000000 0.000000 5.715540 -0.908681 -0.080228 -9.962114 16.499522 6.576660 8.346092 42.380258 -30.561436 0.000000 0.000000 0.000000 8.270474 -2.589377 -0.334489 1.052566 -7.341551 7.412349 -0.617072 8.025005 -4.659278 -37.239977 -12.324616 -33.801991 38.973708 -61.091855 35.162661 0.000000 0.000000 0.000000 7.873865 -2.399760 -1.530372 0.914395 14.696991 -15.567241 -6.223491 -1.571201 3.781817 -31.629288 33.562935 65.138011 -164.753793 61.042384 164.212624 0.000000 0.000000 0.000000 
